# xmcd
#
# Track frame offsets: 
#        150
#        24225
#        44432
#        62630
#        84806
#        108030
#        126936
#        145062
#        163518
#        178709
#        194590
#
# Disc length: 2837 seconds
#
# Revision: 0
# Processed by: cddbd v1.5.2PL0 Copyright (c) Steve Scherf et al.
# Submitted via: ExactAudioCopyFreeDBPlugin 1.0
#
DISCID=890b130b
DTITLE=Austra - Feel It Break
DYEAR=2011
DGENRE=Pop
TTITLE0=Darken Her Horse
TTITLE1=Lose It
TTITLE2=The Future
TTITLE3=Beat And The Pulse
TTITLE4=Spellwork
TTITLE5=The Choke
TTITLE6=Hate Crime
TTITLE7=The Villain
TTITLE8=Shoot The Water
TTITLE9=The Noise
TTITLE10=The Beast
EXTD=
EXTT0=
EXTT1=
EXTT2=
EXTT3=
EXTT4=
EXTT5=
EXTT6=
EXTT7=
EXTT8=
EXTT9=
EXTT10=
PLAYORDER=
